<?xml version="1.0" encoding="UTF-8"?>
<!--Generator: Apple Native CoreSVG 341-->
<!DOCTYPE svg
PUBLIC "-//W3C//DTD SVG 1.1//EN"
       "http://www.w3.org/Graphics/SVG/1.1/DTD/svg11.dtd">
<svg version="1.1" xmlns="http://www.w3.org/2000/svg" xmlns:xlink="http://www.w3.org/1999/xlink" viewBox="0 0 567.773 567.773">
 <g>
  <rect height="567.773" opacity="0" width="567.773" x="0" y="0"/>
  <path d="M567.773 283.711C567.773 440.156 440.508 567.422 283.711 567.422C127.266 567.422 0 440.156 0 283.711C0 127.266 127.266 0 283.711 0C440.508 0 567.773 127.266 567.773 283.711ZM201.136 117.392C192.745 117.392 186.646 120.467 182.27 126.955L142.01 187.311C137.559 194.039 137.197 202.542 141.298 209.832L195.551 307.427C188.229 321.249 184.113 337.021 184.113 353.757C184.113 408.803 228.797 453.475 283.842 453.475C338.988 453.475 383.56 408.803 383.56 353.757C383.56 337.016 379.452 321.24 372.138 307.416L426.475 209.832C430.476 202.542 430.114 194.039 425.663 187.311L385.403 126.955C381.027 120.467 374.94 117.392 366.637 117.392ZM347.878 353.757C347.878 388.961 319.146 417.693 283.842 417.693C248.639 417.693 219.895 389.061 219.895 353.757C219.895 318.453 248.539 289.722 283.842 289.722C319.146 289.722 347.878 318.353 347.878 353.757ZM277.36 308.205L268.866 334.691L241.249 334.316C233.476 334.229 231.335 342.603 237.255 346.795L259.896 363.015L250.903 389.327C248.45 396.599 255.171 401.542 261.59 396.874L283.942 380.49L306.196 396.874C312.491 401.617 319.125 396.774 316.772 389.327L307.878 362.928L330.419 346.807C336.398 342.579 334.274 334.229 326.613 334.316L298.808 334.691L290.314 308.205C288.036 300.722 279.825 300.722 277.36 308.205ZM239.817 264.298C232.42 267.826 225.59 272.33 219.442 277.616L177.553 198.228L193.125 175.218ZM390.131 198.228L348.247 277.587C342.121 272.323 335.315 267.834 327.944 264.315L374.56 175.218ZM292.115 254.357C289.402 254.054 286.635 253.939 283.842 253.939C281.079 253.939 278.341 254.052 275.656 254.353L254.834 217.21L312.939 217.21ZM331.963 183.274L235.81 183.274L218.937 153.174L348.836 153.174Z" fill="black" fill-opacity="0.85"/>
 </g>
</svg>
