<?xml version="1.0" encoding="UTF-8"?>
<!--Generator: Apple Native CoreSVG 341-->
<!DOCTYPE svg
PUBLIC "-//W3C//DTD SVG 1.1//EN"
       "http://www.w3.org/Graphics/SVG/1.1/DTD/svg11.dtd">
<svg version="1.1" xmlns="http://www.w3.org/2000/svg" xmlns:xlink="http://www.w3.org/1999/xlink" viewBox="0 0 567.773 567.773">
 <g>
  <rect height="567.773" opacity="0" width="567.773" x="0" y="0"/>
  <path d="M567.773 283.711C567.773 440.508 440.508 567.422 283.711 567.422C127.266 567.422 0 440.508 0 283.711C0 127.266 127.266 0 283.711 0C440.508 0 567.773 127.266 567.773 283.711ZM171.562 396.914C165.234 399.375 161.367 405.352 161.367 413.438L161.367 440.859C161.367 451.758 168.398 458.789 179.297 458.789L182.812 458.789C193.711 458.789 200.742 451.758 200.742 440.859L200.742 413.438C200.742 405.703 196.875 399.727 191.25 397.266L191.25 387.07C183.164 382.5 176.836 377.227 171.562 371.602ZM327.305 329.062C311.484 336.445 296.719 339.961 283.359 339.609C270.352 339.961 255.586 336.445 239.766 329.062L191.25 306.562L191.25 387.07C213.398 400.781 245.391 408.164 283.359 408.164C362.109 408.164 413.086 375.469 413.086 332.93L413.086 289.336ZM153.633 332.93C153.633 344.531 159.961 359.297 171.562 371.602L171.562 297.422L153.633 289.336ZM247.852 157.5L120.234 215.508C111.094 219.727 106.875 227.461 106.875 234.141C106.875 241.172 111.094 248.203 120.234 252.422L170.508 275.273L255.586 236.602C255.234 235.898 255.234 234.844 255.234 234.141C255.234 225 270.352 219.023 284.062 219.023C298.477 219.023 312.891 225 312.891 234.141C312.891 243.633 298.477 249.961 284.062 249.961C280.195 249.961 275.977 249.609 272.109 248.555L191.953 285.117L247.852 311.133C261.562 317.109 272.461 320.273 283.359 319.922C294.609 320.273 305.508 317.109 318.867 311.133L446.836 252.422C455.977 248.203 460.195 241.172 460.195 234.141C460.195 227.461 455.977 219.727 446.836 215.508L318.867 157.5C305.508 151.172 294.609 148.359 283.359 148.711C272.461 148.359 261.562 151.172 247.852 157.5Z" fill="black" fill-opacity="0.85"/>
 </g>
</svg>
