<?xml version="1.0" encoding="UTF-8"?>
<!--Generator: Apple Native CoreSVG 341-->
<!DOCTYPE svg
PUBLIC "-//W3C//DTD SVG 1.1//EN"
       "http://www.w3.org/Graphics/SVG/1.1/DTD/svg11.dtd">
<svg version="1.1" xmlns="http://www.w3.org/2000/svg" xmlns:xlink="http://www.w3.org/1999/xlink" viewBox="0 0 567.773 567.773">
 <g>
  <rect height="567.773" opacity="0" width="567.773" x="0" y="0"/>
  <path d="M283.711 567.422C440.508 567.422 567.773 440.508 567.773 283.711C567.773 126.914 440.508 0 283.711 0C127.266 0 0 126.914 0 283.711C0 440.508 127.266 567.422 283.711 567.422ZM283.711 513.984C156.445 513.984 53.7891 410.977 53.7891 283.711C53.7891 156.445 156.445 53.4375 283.711 53.4375C410.977 53.4375 513.984 156.445 513.984 283.711C513.984 410.977 410.977 513.984 283.711 513.984Z" fill="black" fill-opacity="0.85"/>
  <path d="M253.477 414.492C263.672 414.492 272.461 409.57 278.789 399.727L399.727 208.477C403.594 202.148 407.461 195.117 407.461 188.086C407.461 174.023 395.156 165.234 381.797 165.234C373.711 165.234 365.977 169.805 360 179.297L252.07 354.375L203.555 288.984C195.82 278.789 188.789 276.328 180.352 276.328C166.641 276.328 156.094 287.227 156.094 301.289C156.094 307.969 158.906 314.648 163.125 320.625L226.406 399.727C234.492 410.273 242.93 414.492 253.477 414.492Z" fill="black" fill-opacity="0.85"/>
 </g>
</svg>
