<?xml version="1.0" encoding="UTF-8"?>
<!--Generator: Apple Native CoreSVG 341-->
<!DOCTYPE svg
PUBLIC "-//W3C//DTD SVG 1.1//EN"
       "http://www.w3.org/Graphics/SVG/1.1/DTD/svg11.dtd">
<svg version="1.1" xmlns="http://www.w3.org/2000/svg" xmlns:xlink="http://www.w3.org/1999/xlink" viewBox="0 0 567.07 698.555">
 <g>
  <rect height="698.555" opacity="0" width="567.07" x="0" y="0"/>
  <path d="M133.594 89.6484C133.594 29.8828 162.773 0 221.836 0L324.492 0C357.891 0 383.555 8.08594 405 30.2344L536.836 164.883C559.336 188.086 567.07 212.344 567.07 250.664L567.07 467.93C567.07 527.695 537.539 557.578 478.477 557.578L433.477 557.578L433.477 506.953L476.016 506.953C502.383 506.953 516.094 492.539 516.094 467.227L516.094 236.25L393.75 236.25C360.703 236.25 344.18 219.727 344.18 186.328L344.18 50.625L224.648 50.625C197.93 50.625 184.219 65.0391 184.219 90.3516L184.219 139.929L184.219 139.929C183.996 139.922 183.756 139.922 183.516 139.922L133.594 139.922ZM389.531 178.594C389.531 187.383 393.047 190.898 401.836 190.898L503.789 190.898L389.531 73.8281Z" fill="black" fill-opacity="0.85"/>
  <path d="M0 607.852C0 667.969 29.1797 697.5 88.2422 697.5L344.883 697.5C403.945 697.5 433.477 667.617 433.477 607.852L433.477 397.969C433.477 358.945 429.258 342.422 405 317.461L259.102 168.398C236.25 144.844 217.266 139.922 183.516 139.922L88.2422 139.922C29.1797 139.922 0 169.805 0 229.57ZM50.625 607.148L50.625 230.273C50.625 204.961 64.3359 190.547 91.0547 190.547L175.078 190.547L175.078 346.641C175.078 383.555 193.711 401.836 230.273 401.836L382.5 401.836L382.5 607.148C382.5 632.461 368.789 646.875 342.422 646.875L90.7031 646.875C64.3359 646.875 50.625 632.461 50.625 607.148ZM236.25 354.727C226.406 354.727 222.188 350.508 222.188 340.664L222.188 200.391L373.008 354.727Z" fill="black" fill-opacity="0.85"/>
 </g>
</svg>
