<?xml version="1.0" encoding="UTF-8"?>
<!--Generator: Apple Native CoreSVG 341-->
<!DOCTYPE svg
PUBLIC "-//W3C//DTD SVG 1.1//EN"
       "http://www.w3.org/Graphics/SVG/1.1/DTD/svg11.dtd">
<svg version="1.1" xmlns="http://www.w3.org/2000/svg" xmlns:xlink="http://www.w3.org/1999/xlink" viewBox="0 0 567.773 567.773">
 <g>
  <rect height="567.773" opacity="0" width="567.773" x="0" y="0"/>
  <path d="M567.773 284.062C567.773 440.508 440.508 567.773 283.711 567.773C127.266 567.773 0 440.508 0 284.062C0 127.617 127.266 0.351562 283.711 0.351562C440.508 0.351562 567.773 127.617 567.773 284.062ZM310.43 311.484C301.992 318.867 292.5 322.383 283.711 322.383C274.57 322.383 265.078 318.867 256.992 311.484L236.953 293.906L130.43 400.078C136.055 403.594 144.141 406.055 153.984 406.055L413.086 406.055C422.93 406.055 431.016 403.594 436.641 400.078L330.117 293.906ZM113.555 207.07L113.555 361.055C113.555 369.844 114.609 375.82 116.719 381.094L219.023 278.086L116.367 188.086C115.312 190.547 113.555 197.578 113.555 207.07ZM348.047 278.086L450.703 381.094C452.461 375.82 453.867 369.844 453.867 361.055L453.867 207.07C453.867 197.578 452.109 190.547 451.055 188.086ZM158.906 162.07C146.953 162.07 138.164 164.18 130.078 169.102L270.703 292.5C274.922 296.016 279.492 297.773 283.711 297.773C287.93 297.773 292.5 296.016 296.367 292.5L437.344 169.102C428.906 164.18 420.469 162.07 408.516 162.07Z" fill="black" fill-opacity="0.85"/>
 </g>
</svg>
